{
    "asset" : {
        "generator" : "Khronos glTF Blender I/O v0.9.36",
        "version" : "2.0"
    },
    "scene" : 0,
    "scenes" : [
        {
            "name" : "Scene",
            "nodes" : [
                0
            ]
        }
    ],
    "nodes" : [
        {
            "mesh" : 0,
            "name" : "Invader2",
            "rotation" : [
                0,
                0,
                -1,
                0
            ],
            "scale" : [
                0.10000000149011612,
                0.10000000149011612,
                0.10000000149011612
            ]
        }
    ],
    "materials" : [
        {
            "doubleSided" : true,
            "emissiveFactor" : [
                0,
                0,
                0
            ],
            "name" : "03_-_Default",
            "pbrMetallicRoughness" : {
                "baseColorTexture" : {
                    "index" : 0,
                    "texCoord" : 0
                },
                "metallicFactor" : 1,
                "roughnessFactor" : 0.7909680008888245
            }
        }
    ],
    "meshes" : [
        {
            "name" : "Invader023_03 - Default_0",
            "primitives" : [
                {
                    "attributes" : {
                        "POSITION" : 0,
                        "NORMAL" : 1,
                        "TEXCOORD_0" : 2
                    },
                    "indices" : 3,
                    "material" : 0
                }
            ]
        }
    ],
    "textures" : [
        {
            "source" : 0
        }
    ],
    "images" : [
        {
            "bufferView" : 4,
            "mimeType" : "image/png",
            "name" : "Image_1"
        }
    ],
    "accessors" : [
        {
            "bufferView" : 0,
            "componentType" : 5126,
            "count" : 521,
            "max" : [
                15.663658142089844,
                9.876117706298828,
                0
            ],
            "min" : [
                -17.80083465576172,
                -16.376117706298828,
                -2.7983851432800293
            ],
            "type" : "VEC3"
        },
        {
            "bufferView" : 1,
            "componentType" : 5126,
            "count" : 521,
            "type" : "VEC3"
        },
        {
            "bufferView" : 2,
            "componentType" : 5126,
            "count" : 521,
            "type" : "VEC2"
        },
        {
            "bufferView" : 3,
            "componentType" : 5123,
            "count" : 732,
            "type" : "SCALAR"
        }
    ],
    "bufferViews" : [
        {
            "buffer" : 0,
            "byteLength" : 6252,
            "byteOffset" : 0
        },
        {
            "buffer" : 0,
            "byteLength" : 6252,
            "byteOffset" : 6252
        },
        {
            "buffer" : 0,
            "byteLength" : 4168,
            "byteOffset" : 12504
        },
        {
            "buffer" : 0,
            "byteLength" : 1464,
            "byteOffset" : 16672
        },
        {
            "buffer" : 0,
            "byteLength" : 15799,
            "byteOffset" : 18136
        }
    ],
    "buffers" : [
        {
            "byteLength" : 33936,
            "uri" : "data:application/octet-stream;base64,"
        }
    ]
}
