{
    "asset" : {
        "generator" : "Khronos glTF Blender I/O v0.9.36",
        "version" : "2.0"
    },
    "scene" : 0,
    "scenes" : [
        {
            "name" : "Scene",
            "nodes" : [
                0
            ]
        }
    ],
    "nodes" : [
        {
            "mesh" : 0,
            "name" : "Invader3",
            "rotation" : [
                0,
                0,
                -1,
                0
            ],
            "scale" : [
                0.10000000149011612,
                0.10000000149011612,
                0.10000000149011612
            ]
        }
    ],
    "materials" : [
        {
            "doubleSided" : true,
            "emissiveFactor" : [
                0,
                0,
                0
            ],
            "name" : "03_-_Default",
            "pbrMetallicRoughness" : {
                "baseColorTexture" : {
                    "index" : 0,
                    "texCoord" : 0
                },
                "metallicFactor" : 1,
                "roughnessFactor" : 0.7909680008888245
            }
        }
    ],
    "meshes" : [
        {
            "name" : "Invade1_03 - Default_0",
            "primitives" : [
                {
                    "attributes" : {
                        "POSITION" : 0,
                        "NORMAL" : 1,
                        "TEXCOORD_0" : 2
                    },
                    "indices" : 3,
                    "material" : 0
                }
            ]
        }
    ],
    "textures" : [
        {
            "source" : 0
        }
    ],
    "images" : [
        {
            "bufferView" : 4,
            "mimeType" : "image/png",
            "name" : "Image_1"
        }
    ],
    "accessors" : [
        {
            "bufferView" : 0,
            "componentType" : 5126,
            "count" : 545,
            "max" : [
                19.225177764892578,
                14.579054832458496,
                5.000003337860107
            ],
            "min" : [
                -19.225177764892578,
                -12.738884925842285,
                -4.999999046325684
            ],
            "type" : "VEC3"
        },
        {
            "bufferView" : 1,
            "componentType" : 5126,
            "count" : 545,
            "type" : "VEC3"
        },
        {
            "bufferView" : 2,
            "componentType" : 5126,
            "count" : 545,
            "type" : "VEC2"
        },
        {
            "bufferView" : 3,
            "componentType" : 5123,
            "count" : 702,
            "type" : "SCALAR"
        }
    ],
    "bufferViews" : [
        {
            "buffer" : 0,
            "byteLength" : 6540,
            "byteOffset" : 0
        },
        {
            "buffer" : 0,
            "byteLength" : 6540,
            "byteOffset" : 6540
        },
        {
            "buffer" : 0,
            "byteLength" : 4360,
            "byteOffset" : 13080
        },
        {
            "buffer" : 0,
            "byteLength" : 1404,
            "byteOffset" : 17440
        },
        {
            "buffer" : 0,
            "byteLength" : 15799,
            "byteOffset" : 18844
        }
    ],
    "buffers" : [
        {
            "byteLength" : 34644,
            "uri" : "data:application/octet-stream;base64,"
        }
    ]
}
